<svg width="1094" height="157" viewBox="0 0 1094 157" fill="none" xmlns="http://www.w3.org/2000/svg">
<path d="M33.8185 154H0.863992L51.0771 8.54545H90.7077L140.85 154H107.895L71.4606 41.7841H70.3242L33.8185 154ZM31.7589 96.8267H109.6V120.832H31.7589V96.8267ZM188.044 8.54545V154H157.789V8.54545H188.044ZM261.571 156.131C250.396 156.131 240.785 153.763 232.735 149.028C224.734 144.246 218.578 137.617 214.27 129.142C210.008 120.667 207.877 110.913 207.877 99.8807C207.877 88.7064 210.032 78.9053 214.341 70.4773C218.697 62.0019 224.876 55.3968 232.877 50.6619C240.879 45.8797 250.396 43.4886 261.429 43.4886C270.946 43.4886 279.279 45.2169 286.429 48.6733C293.578 52.1297 299.236 56.983 303.403 63.233C307.57 69.483 309.866 76.822 310.292 85.25H281.741C280.936 79.8049 278.806 75.4252 275.349 72.1108C271.94 68.7491 267.466 67.0682 261.926 67.0682C257.238 67.0682 253.143 68.3466 249.639 70.9034C246.182 73.4129 243.484 77.0824 241.542 81.9119C239.601 86.7415 238.63 92.589 238.63 99.4545C238.63 106.415 239.577 112.333 241.471 117.21C243.413 122.087 246.135 125.804 249.639 128.361C253.143 130.918 257.238 132.196 261.926 132.196C265.382 132.196 268.484 131.486 271.23 130.065C274.023 128.645 276.32 126.585 278.119 123.886C279.966 121.14 281.173 117.849 281.741 114.014H310.292C309.819 122.348 307.546 129.687 303.474 136.031C299.449 142.329 293.886 147.253 286.784 150.804C279.681 154.355 271.277 156.131 261.571 156.131ZM359.919 90.9318V154H329.664V8.54545H359.067V64.1562H360.346C362.808 57.7169 366.785 52.6742 372.277 49.0284C377.77 45.3352 384.659 43.4886 392.945 43.4886C400.521 43.4886 407.126 45.1458 412.76 48.4602C418.442 51.7273 422.846 56.4384 425.971 62.5938C429.143 68.7017 430.705 76.017 430.658 84.5398V154H400.402V89.9375C400.45 83.214 398.745 77.982 395.289 74.2415C391.88 70.5009 387.097 68.6307 380.942 68.6307C376.823 68.6307 373.177 69.5066 370.005 71.2585C366.88 73.0104 364.417 75.5672 362.618 78.929C360.866 82.2434 359.967 86.2443 359.919 90.9318ZM504.184 156.131C492.963 156.131 483.304 153.858 475.207 149.312C467.158 144.72 460.955 138.233 456.599 129.852C452.243 121.424 450.065 111.457 450.065 99.9517C450.065 88.7301 452.243 78.8816 456.599 70.4062C460.955 61.9309 467.087 55.3258 474.994 50.5909C482.949 45.8561 492.276 43.4886 502.977 43.4886C510.174 43.4886 516.874 44.6487 523.076 46.9688C529.326 49.2415 534.771 52.6742 539.412 57.267C544.099 61.8598 547.745 67.6364 550.349 74.5966C552.953 81.5095 554.255 89.6061 554.255 98.8864V107.196H462.139V88.446H525.775C525.775 84.09 524.828 80.2311 522.934 76.8693C521.04 73.5076 518.413 70.8797 515.051 68.9858C511.736 67.0445 507.877 66.0739 503.474 66.0739C498.881 66.0739 494.809 67.1392 491.258 69.2699C487.754 71.3532 485.008 74.1705 483.02 77.7216C481.031 81.2254 480.013 85.1316 479.966 89.4403V107.267C479.966 112.665 480.96 117.329 482.949 121.259C484.984 125.188 487.849 128.219 491.542 130.349C495.235 132.48 499.615 133.545 504.681 133.545C508.043 133.545 511.121 133.072 513.914 132.125C516.708 131.178 519.099 129.758 521.088 127.864C523.076 125.97 524.592 123.65 525.633 120.903L553.616 122.75C552.196 129.473 549.284 135.345 544.88 140.364C540.524 145.335 534.89 149.218 527.977 152.011C521.111 154.758 513.181 156.131 504.184 156.131ZM574 154V44.9091H602.835V64.1562H604.113C606.386 57.7642 610.174 52.7216 615.477 49.0284C620.78 45.3352 627.125 43.4886 634.511 43.4886C641.992 43.4886 648.36 45.3589 653.616 49.0994C658.872 52.7926 662.376 57.8116 664.127 64.1562H665.264C667.489 57.9062 671.514 52.911 677.338 49.1705C683.209 45.3826 690.145 43.4886 698.147 43.4886C708.327 43.4886 716.59 46.732 722.934 53.2188C729.326 59.6581 732.522 68.7964 732.522 80.6335V154H702.338V86.5994C702.338 80.5388 700.728 75.9934 697.508 72.9631C694.288 69.9328 690.264 68.4176 685.434 68.4176C679.942 68.4176 675.657 70.1695 672.579 73.6733C669.502 77.1297 667.963 81.6989 667.963 87.3807V154H638.63V85.9602C638.63 80.6098 637.092 76.3485 634.014 73.1761C630.984 70.0038 626.983 68.4176 622.011 68.4176C618.649 68.4176 615.619 69.2699 612.92 70.9744C610.269 72.6316 608.162 74.9754 606.599 78.0057C605.037 80.9886 604.255 84.4924 604.255 88.517V154H574ZM756.422 154V44.9091H786.677V154H756.422ZM771.62 30.8466C767.122 30.8466 763.263 29.3551 760.044 26.3722C756.871 23.3419 755.285 19.7197 755.285 15.5057C755.285 11.339 756.871 7.7642 760.044 4.78125C763.263 1.75094 767.122 0.235788 771.62 0.235788C776.118 0.235788 779.954 1.75094 783.126 4.78125C786.346 7.7642 787.956 11.339 787.956 15.5057C787.956 19.7197 786.346 23.3419 783.126 26.3722C779.954 29.3551 776.118 30.8466 771.62 30.8466ZM901.681 76.017L873.982 77.7216C873.508 75.3542 872.49 73.2235 870.928 71.3295C869.365 69.3883 867.306 67.8494 864.749 66.7131C862.239 65.5294 859.233 64.9375 855.729 64.9375C851.042 64.9375 847.088 65.9318 843.868 67.9205C840.649 69.8617 839.039 72.4659 839.039 75.733C839.039 78.3371 840.08 80.5388 842.164 82.3381C844.247 84.1373 847.822 85.5814 852.888 86.6705L872.632 90.6477C883.239 92.8258 891.146 96.3295 896.354 101.159C901.562 105.989 904.167 112.333 904.167 120.193C904.167 127.343 902.06 133.616 897.846 139.014C893.679 144.412 887.95 148.626 880.658 151.656C873.414 154.639 865.057 156.131 855.587 156.131C841.146 156.131 829.64 153.124 821.07 147.111C812.547 141.05 807.552 132.812 806.084 122.395L835.843 120.832C836.742 125.236 838.92 128.598 842.377 130.918C845.833 133.19 850.26 134.327 855.658 134.327C860.961 134.327 865.222 133.309 868.442 131.273C871.709 129.189 873.366 126.514 873.414 123.247C873.366 120.501 872.206 118.252 869.934 116.5C867.661 114.701 864.157 113.328 859.422 112.381L840.53 108.616C829.877 106.486 821.946 102.793 816.738 97.5369C811.577 92.2812 808.996 85.5814 808.996 77.4375C808.996 70.4299 810.89 64.393 814.678 59.3267C818.513 54.2604 823.887 50.3542 830.8 47.608C837.76 44.8617 845.904 43.4886 855.232 43.4886C869.01 43.4886 879.853 46.4006 887.76 52.2244C895.715 58.0483 900.355 65.9792 901.681 76.017ZM981.244 44.9091V67.6364H915.548V44.9091H981.244ZM930.463 18.7727H960.718V120.477C960.718 123.271 961.145 125.449 961.997 127.011C962.849 128.527 964.033 129.592 965.548 130.207C967.11 130.823 968.91 131.131 970.946 131.131C972.366 131.131 973.787 131.012 975.207 130.776C976.627 130.491 977.717 130.278 978.474 130.136L983.233 152.651C981.717 153.124 979.587 153.669 976.841 154.284C974.094 154.947 970.756 155.349 966.826 155.491C959.535 155.776 953.143 154.805 947.65 152.58C942.205 150.354 937.967 146.898 934.937 142.21C931.907 137.523 930.415 131.604 930.463 124.455V18.7727ZM1032.06 156.06C1025.1 156.06 1018.9 154.852 1013.45 152.438C1008.01 149.975 1003.7 146.353 1000.53 141.571C997.402 136.741 995.839 130.728 995.839 123.531C995.839 117.471 996.952 112.381 999.177 108.261C1001.4 104.142 1004.43 100.828 1008.27 98.3182C1012.1 95.8087 1016.46 93.9148 1021.34 92.6364C1026.26 91.358 1031.42 90.4583 1036.82 89.9375C1043.16 89.2746 1048.28 88.6591 1052.16 88.0909C1056.04 87.4754 1058.86 86.5758 1060.61 85.392C1062.36 84.2083 1063.24 82.4564 1063.24 80.1364V79.7102C1063.24 75.2121 1061.82 71.732 1058.98 69.2699C1056.18 66.8078 1052.21 65.5767 1047.05 65.5767C1041.6 65.5767 1037.27 66.7841 1034.05 69.1989C1030.83 71.5663 1028.7 74.5492 1027.66 78.1477L999.674 75.875C1001.09 69.2462 1003.89 63.517 1008.06 58.6875C1012.22 53.8106 1017.6 50.0701 1024.18 47.4659C1030.81 44.8144 1038.48 43.4886 1047.19 43.4886C1053.25 43.4886 1059.05 44.1989 1064.59 45.6193C1070.18 47.0398 1075.12 49.2415 1079.43 52.2244C1083.79 55.2074 1087.22 59.0426 1089.73 63.7301C1092.24 68.3703 1093.5 73.9337 1093.5 80.4205V154H1064.8V138.872H1063.95C1062.2 142.281 1059.85 145.288 1056.92 147.892C1053.98 150.449 1050.46 152.461 1046.34 153.929C1042.22 155.349 1037.46 156.06 1032.06 156.06ZM1040.73 135.179C1045.18 135.179 1049.11 134.303 1052.52 132.551C1055.92 130.752 1058.6 128.337 1060.54 125.307C1062.48 122.277 1063.45 118.844 1063.45 115.009V103.432C1062.51 104.047 1061.2 104.616 1059.55 105.136C1057.94 105.61 1056.11 106.06 1054.08 106.486C1052.04 106.865 1050.01 107.22 1047.97 107.551C1045.93 107.835 1044.09 108.096 1042.43 108.332C1038.88 108.853 1035.78 109.682 1033.13 110.818C1030.47 111.955 1028.41 113.493 1026.95 115.435C1025.48 117.329 1024.75 119.696 1024.75 122.537C1024.75 126.656 1026.24 129.805 1029.22 131.983C1032.25 134.114 1036.09 135.179 1040.73 135.179Z" fill="black"/>
</svg>
