<svg width="2186" height="313" viewBox="0 0 2186 313" fill="none" xmlns="http://www.w3.org/2000/svg">
<path d="M66.6371 308H0.727984L101.154 17.0909H180.415L280.7 308H214.79L141.921 83.5682H139.648L66.6371 308ZM62.5178 193.653H218.2V241.665H62.5178V193.653ZM375.089 17.0909V308H314.577V17.0909H375.089ZM522.141 312.261C499.793 312.261 480.569 307.527 464.471 298.057C448.467 288.492 436.156 275.235 427.539 258.284C419.016 241.333 414.755 221.826 414.755 199.761C414.755 177.413 419.064 157.811 427.681 140.955C436.393 124.004 448.751 110.794 464.755 101.324C480.759 91.7595 499.793 86.9773 521.857 86.9773C540.891 86.9773 557.558 90.4337 571.857 97.3466C586.156 104.259 597.473 113.966 605.806 126.466C614.139 138.966 618.732 153.644 619.585 170.5H562.482C560.872 159.61 556.611 150.85 549.698 144.222C542.88 137.498 533.931 134.136 522.852 134.136C513.477 134.136 505.285 136.693 498.278 141.807C491.365 146.826 485.967 154.165 482.085 163.824C478.202 173.483 476.261 185.178 476.261 198.909C476.261 212.83 478.155 224.667 481.942 234.42C485.825 244.174 491.27 251.608 498.278 256.722C505.285 261.835 513.477 264.392 522.852 264.392C529.764 264.392 535.967 262.972 541.46 260.131C547.047 257.29 551.639 253.17 555.238 247.773C558.931 242.28 561.346 235.699 562.482 228.028H619.585C618.638 244.695 614.092 259.373 605.948 272.062C597.899 284.657 586.772 294.506 572.567 301.608C558.363 308.71 541.554 312.261 522.141 312.261ZM718.839 181.864V308H658.327V17.0909H717.134V128.312H719.691C724.615 115.434 732.57 105.348 743.555 98.0568C754.54 90.6705 768.318 86.9773 784.89 86.9773C800.041 86.9773 813.252 90.2917 824.521 96.9205C835.884 103.455 844.691 112.877 850.941 125.188C857.286 137.403 860.411 152.034 860.316 169.08V308H799.805V179.875C799.899 166.428 796.49 155.964 789.577 148.483C782.759 141.002 773.195 137.261 760.884 137.261C752.646 137.261 745.354 139.013 739.009 142.517C732.759 146.021 727.835 151.134 724.237 157.858C720.733 164.487 718.933 172.489 718.839 181.864ZM1007.37 312.261C984.925 312.261 965.607 307.716 949.414 298.625C933.316 289.439 920.91 276.466 912.198 259.705C903.486 242.848 899.13 222.915 899.13 199.903C899.13 177.46 903.486 157.763 912.198 140.812C920.91 123.862 933.174 110.652 948.988 101.182C964.897 91.7121 983.552 86.9773 1004.95 86.9773C1019.35 86.9773 1032.75 89.2973 1045.15 93.9375C1057.65 98.483 1068.54 105.348 1077.82 114.534C1087.2 123.72 1094.49 135.273 1099.7 149.193C1104.91 163.019 1107.51 179.212 1107.51 197.773V214.392H923.278V176.892H1050.55C1050.55 168.18 1048.66 160.462 1044.87 153.739C1041.08 147.015 1035.83 141.759 1029.1 137.972C1022.47 134.089 1014.75 132.148 1005.95 132.148C996.763 132.148 988.619 134.278 981.516 138.54C974.509 142.706 969.016 148.341 965.039 155.443C961.062 162.451 959.026 170.263 958.931 178.881V214.534C958.931 225.33 960.92 234.657 964.897 242.517C968.969 250.377 974.698 256.438 982.085 260.699C989.471 264.96 998.23 267.091 1008.36 267.091C1015.09 267.091 1021.24 266.144 1026.83 264.25C1032.42 262.356 1037.2 259.515 1041.18 255.727C1045.15 251.939 1048.18 247.299 1050.27 241.807L1106.23 245.5C1103.39 258.947 1097.57 270.689 1088.76 280.727C1080.05 290.67 1068.78 298.436 1054.95 304.023C1041.22 309.515 1025.36 312.261 1007.37 312.261ZM1147 308V89.8182H1204.67V128.312H1207.23C1211.77 115.528 1219.35 105.443 1229.95 98.0568C1240.56 90.6705 1253.25 86.9773 1268.02 86.9773C1282.98 86.9773 1295.72 90.7178 1306.23 98.1989C1316.74 105.585 1323.75 115.623 1327.25 128.312H1329.53C1333.98 115.812 1342.03 105.822 1353.68 98.3409C1365.42 90.7652 1379.29 86.9773 1395.29 86.9773C1415.65 86.9773 1432.18 93.464 1444.87 106.438C1457.65 119.316 1464.04 137.593 1464.04 161.267V308H1403.68V173.199C1403.68 161.078 1400.46 151.987 1394.02 145.926C1387.58 139.866 1379.53 136.835 1369.87 136.835C1358.88 136.835 1350.31 140.339 1344.16 147.347C1338 154.259 1334.93 163.398 1334.93 174.761V308H1276.26V171.92C1276.26 161.22 1273.18 152.697 1267.03 146.352C1260.97 140.008 1252.97 136.835 1243.02 136.835C1236.3 136.835 1230.24 138.54 1224.84 141.949C1219.54 145.263 1215.32 149.951 1212.2 156.011C1209.07 161.977 1207.51 168.985 1207.51 177.034V308H1147ZM1511.84 308V89.8182H1572.35V308H1511.84ZM1542.24 61.6932C1533.24 61.6932 1525.53 58.7102 1519.09 52.7443C1512.74 46.6837 1509.57 39.4394 1509.57 31.0114C1509.57 22.678 1512.74 15.5284 1519.09 9.5625C1525.53 3.50188 1533.24 0.471576 1542.24 0.471576C1551.24 0.471576 1558.91 3.50188 1565.25 9.5625C1571.69 15.5284 1574.91 22.678 1574.91 31.0114C1574.91 39.4394 1571.69 46.6837 1565.25 52.7443C1558.91 58.7102 1551.24 61.6932 1542.24 61.6932ZM1802.36 152.034L1746.96 155.443C1746.02 150.708 1743.98 146.447 1740.86 142.659C1737.73 138.777 1733.61 135.699 1728.5 133.426C1723.48 131.059 1717.47 129.875 1710.46 129.875C1701.08 129.875 1693.18 131.864 1686.74 135.841C1680.3 139.723 1677.08 144.932 1677.08 151.466C1677.08 156.674 1679.16 161.078 1683.33 164.676C1687.49 168.275 1694.64 171.163 1704.78 173.341L1744.26 181.295C1765.48 185.652 1781.29 192.659 1791.71 202.318C1802.12 211.977 1807.33 224.667 1807.33 240.386C1807.33 254.686 1803.12 267.233 1794.69 278.028C1786.36 288.824 1774.9 297.252 1760.32 303.312C1745.83 309.278 1729.11 312.261 1710.17 312.261C1681.29 312.261 1658.28 306.248 1641.14 294.222C1624.09 282.1 1614.1 265.623 1611.17 244.79L1670.69 241.665C1672.48 250.472 1676.84 257.195 1683.75 261.835C1690.67 266.381 1699.52 268.653 1710.32 268.653C1720.92 268.653 1729.44 266.617 1735.88 262.545C1742.42 258.379 1745.73 253.028 1745.83 246.494C1745.73 241.002 1743.41 236.504 1738.87 233C1734.32 229.402 1727.31 226.655 1717.84 224.761L1680.06 217.233C1658.75 212.972 1642.89 205.585 1632.48 195.074C1622.15 184.562 1616.99 171.163 1616.99 154.875C1616.99 140.86 1620.78 128.786 1628.36 118.653C1636.03 108.521 1646.77 100.708 1660.6 95.2159C1674.52 89.7235 1690.81 86.9773 1709.46 86.9773C1737.02 86.9773 1758.71 92.8011 1774.52 104.449C1790.43 116.097 1799.71 131.958 1802.36 152.034ZM1961.49 89.8182V135.273H1830.1V89.8182H1961.49ZM1859.93 37.5455H1920.44V240.955C1920.44 246.542 1921.29 250.898 1922.99 254.023C1924.7 257.053 1927.07 259.184 1930.1 260.415C1933.22 261.646 1936.82 262.261 1940.89 262.261C1943.73 262.261 1946.57 262.025 1949.41 261.551C1952.25 260.983 1954.43 260.557 1955.95 260.273L1965.47 305.301C1962.43 306.248 1958.17 307.337 1952.68 308.568C1947.19 309.894 1940.51 310.699 1932.65 310.983C1918.07 311.551 1905.29 309.61 1894.3 305.159C1883.41 300.708 1874.93 293.795 1868.87 284.42C1862.81 275.045 1859.83 263.208 1859.93 248.909V37.5455ZM2063.12 312.119C2049.2 312.119 2036.8 309.705 2025.91 304.875C2015.02 299.951 2006.4 292.706 2000.05 283.142C1993.8 273.483 1990.68 261.456 1990.68 247.062C1990.68 234.941 1992.9 224.761 1997.35 216.523C2001.81 208.284 2007.87 201.655 2015.54 196.636C2023.21 191.617 2031.92 187.83 2041.67 185.273C2051.52 182.716 2061.84 180.917 2072.64 179.875C2085.33 178.549 2095.56 177.318 2103.32 176.182C2111.09 174.951 2116.72 173.152 2120.22 170.784C2123.73 168.417 2125.48 164.913 2125.48 160.273V159.42C2125.48 150.424 2122.64 143.464 2116.96 138.54C2111.37 133.616 2103.42 131.153 2093.09 131.153C2082.2 131.153 2073.54 133.568 2067.1 138.398C2060.66 143.133 2056.4 149.098 2054.31 156.295L1998.35 151.75C2001.19 138.492 2006.78 127.034 2015.11 117.375C2023.44 107.621 2034.19 100.14 2047.35 94.9318C2060.61 89.6288 2075.95 86.9773 2093.38 86.9773C2105.5 86.9773 2117.1 88.3977 2128.18 91.2386C2139.35 94.0795 2149.25 98.483 2157.87 104.449C2166.58 110.415 2173.44 118.085 2178.46 127.46C2183.48 136.741 2185.99 147.867 2185.99 160.841V308H2128.6V277.744H2126.9C2123.4 284.562 2118.71 290.576 2112.84 295.784C2106.97 300.898 2099.91 304.922 2091.67 307.858C2083.43 310.699 2073.92 312.119 2063.12 312.119ZM2080.45 270.358C2089.35 270.358 2097.21 268.606 2104.03 265.102C2110.85 261.504 2116.2 256.674 2120.08 250.614C2123.96 244.553 2125.91 237.687 2125.91 230.017V206.864C2124.01 208.095 2121.41 209.231 2118.09 210.273C2114.87 211.22 2111.23 212.119 2107.16 212.972C2103.08 213.729 2099.01 214.439 2094.94 215.102C2090.87 215.67 2087.17 216.191 2083.86 216.665C2076.76 217.706 2070.56 219.364 2065.25 221.636C2059.95 223.909 2055.83 226.987 2052.89 230.869C2049.96 234.657 2048.49 239.392 2048.49 245.074C2048.49 253.312 2051.47 259.61 2057.44 263.966C2063.5 268.227 2071.17 270.358 2080.45 270.358Z" fill="black"/>
</svg>
